<svg width="20" height="21" viewBox="0 0 20 21" fill="none" xmlns="http://www.w3.org/2000/svg">
<path d="M6.5 16.9209H3.5H3.3541C2.33011 16.9209 1.5 16.0734 1.5 15.0494V15.0494C1.5 14.3642 1.88713 13.7273 2.5 13.4209V13.4209C3.11287 13.1145 3.5 12.4881 3.5 11.8029V7.9209C3.5 5.15947 5.73858 2.9209 8.5 2.9209V2.9209M6.5 16.9209L6.5068 16.9617C6.79141 18.6693 8.26883 19.9209 10 19.9209V19.9209C11.7312 19.9209 13.2086 18.6693 13.4932 16.9617L13.5 16.9209M6.5 16.9209H13.5M13.5 16.9209H16.5H16.6459C17.6699 16.9209 18.5 16.0734 18.5 15.0494V15.0494C18.5 14.3642 18.1129 13.7273 17.5 13.4209V13.4209C16.8871 13.1145 16.5 12.4881 16.5 11.8029V7.9209C16.5 5.15947 14.2614 2.9209 11.5 2.9209V2.9209M8.5 2.9209V2.4209C8.5 1.59247 9.17157 0.920898 10 0.920898V0.920898C10.8284 0.920898 11.5 1.59247 11.5 2.4209V2.9209M8.5 2.9209H11.5" stroke="#0E1C36" stroke-width="1.5" stroke-linecap="round" stroke-linejoin="round"/>
</svg>
