<svg width="24" height="24" viewBox="0 0 24 24" fill="none" xmlns="http://www.w3.org/2000/svg">
<path d="M20.1464 20.8536C20.3417 21.0488 20.6583 21.0488 20.8536 20.8536C21.0488 20.6583 21.0488 20.3417 20.8536 20.1464L20.1464 20.8536ZM18.5 11H18C18 14.866 14.866 18 11 18V18.5V19C15.4183 19 19 15.4183 19 11H18.5ZM11 18.5V18C7.13401 18 4 14.866 4 11H3.5H3C3 15.4183 6.58172 19 11 19V18.5ZM3.5 11H4C4 7.13401 7.13401 4 11 4V3.5V3C6.58172 3 3 6.58172 3 11H3.5ZM11 3.5V4C14.866 4 18 7.13401 18 11H18.5H19C19 6.58172 15.4183 3 11 3V3.5ZM20.5 20.5L20.8536 20.1464L16.8536 16.1464L16.5 16.5L16.1464 16.8536L20.1464 20.8536L20.5 20.5Z" fill="#0E1C36"/>
</svg>
