<svg width="16" height="16" viewBox="0 0 16 16" fill="none" xmlns="http://www.w3.org/2000/svg">
<path d="M6.66797 2.66699V3.18007C6.26834 3.29037 5.88877 3.44903 5.53596 3.64937L5.17266 3.28606C4.78213 2.89554 4.14897 2.89554 3.75845 3.28606L3.28704 3.75747C2.89652 4.14799 2.89652 4.78116 3.28704 5.17168L3.65035 5.53499C3.45001 5.88779 3.29134 6.26736 3.18105 6.66699H2.66797C2.11568 6.66699 1.66797 7.11471 1.66797 7.66699V8.33366C1.66797 8.88595 2.11568 9.33366 2.66797 9.33366H3.18105C3.29135 9.73331 3.45002 10.1129 3.65037 10.4657L3.28729 10.8288C2.89676 11.2193 2.89676 11.8525 3.28729 12.243L3.75865 12.7144C4.14919 13.1049 4.78238 13.1049 5.1729 12.7143L5.53593 12.3513C5.88874 12.5516 6.26832 12.7103 6.66797 12.8206V13.3337C6.66797 13.8859 7.11568 14.3337 7.66797 14.3337H8.33463C8.88692 14.3337 9.33464 13.8859 9.33464 13.3337V12.8206C9.73424 12.7103 10.1138 12.5517 10.4666 12.3514L10.8295 12.7142C11.22 13.1047 11.8532 13.1047 12.2437 12.7142L12.7151 12.2428C13.1057 11.8522 13.1057 11.2191 12.7151 10.8285L12.3523 10.4657C12.5526 10.1129 12.7113 9.73329 12.8216 9.33366H13.3346C13.8869 9.33366 14.3346 8.88594 14.3346 8.33366V7.66699C14.3346 7.11471 13.8869 6.66699 13.3346 6.66699H12.8216C12.7113 6.26737 12.5526 5.88782 12.3523 5.53502L12.7154 5.17193C13.1059 4.7814 13.1059 4.14824 12.7154 3.75771L12.2439 3.28627C11.8534 2.89576 11.2203 2.89575 10.8298 3.28624L10.4666 3.64935C10.1138 3.44902 9.73425 3.29036 9.33464 3.18007V2.66699C9.33464 2.11471 8.88692 1.66699 8.33463 1.66699H7.66797C7.11568 1.66699 6.66797 2.11471 6.66797 2.66699Z" stroke="#0E1C36" stroke-linejoin="round"/>
<circle cx="8.0013" cy="8.00033" r="2.33333" stroke="#0E1C36"/>
</svg>
