<svg width="14" height="14" viewBox="0 0 14 14" fill="none" xmlns="http://www.w3.org/2000/svg">
<path fill-rule="evenodd" clip-rule="evenodd" d="M7.00016 13.6666C3.31816 13.6666 0.333496 10.682 0.333496 6.99998C0.333496 3.31798 3.31816 0.333313 7.00016 0.333313C10.6822 0.333313 13.6668 3.31798 13.6668 6.99998C13.6668 10.682 10.6822 13.6666 7.00016 13.6666ZM7.00016 12.8666C8.5561 12.8666 10.0483 12.2486 11.1485 11.1483C12.2487 10.0481 12.8668 8.55592 12.8668 6.99998C12.8668 5.44404 12.2487 3.95183 11.1485 2.85162C10.0483 1.75141 8.5561 1.13331 7.00016 1.13331C5.44423 1.13331 3.95202 1.75141 2.8518 2.85162C1.75159 3.95183 1.1335 5.44404 1.1335 6.99998C1.1335 8.55592 1.75159 10.0481 2.8518 11.1483C3.95202 12.2486 5.44423 12.8666 7.00016 12.8666ZM6.60016 5.86665C6.60016 5.75619 6.68971 5.66665 6.80016 5.66665H7.20016C7.31062 5.66665 7.40016 5.75619 7.40016 5.86665V10.1333C7.40016 10.2438 7.31062 10.3333 7.20016 10.3333H6.80016C6.68971 10.3333 6.60016 10.2438 6.60016 10.1333V5.86665ZM7.00016 4.99998C6.82335 4.99998 6.65378 4.92974 6.52876 4.80472C6.40373 4.67969 6.3335 4.51012 6.3335 4.33331C6.3335 4.1565 6.40373 3.98693 6.52876 3.86191C6.65378 3.73688 6.82335 3.66665 7.00016 3.66665C7.17697 3.66665 7.34654 3.73688 7.47157 3.86191C7.59659 3.98693 7.66683 4.1565 7.66683 4.33331C7.66683 4.51012 7.59659 4.67969 7.47157 4.80472C7.34654 4.92974 7.17697 4.99998 7.00016 4.99998Z" fill="black"/>
</svg>
