<svg width="20" height="20" viewBox="0 0 20 20" fill="none" xmlns="http://www.w3.org/2000/svg">
<path d="M0.5 6.5V2.5C0.5 1.39543 1.39543 0.5 2.5 0.5H6.5C7.60457 0.5 8.5 1.39543 8.5 2.5V6.5C8.5 7.60457 7.60457 8.5 6.5 8.5H2.5C1.39543 8.5 0.5 7.60457 0.5 6.5Z" stroke="#0E1C36" stroke-linecap="round" stroke-linejoin="round"/>
<path d="M11.5 6.5V2.5C11.5 1.39543 12.3954 0.5 13.5 0.5H17.5C18.6046 0.5 19.5 1.39543 19.5 2.5V6.5C19.5 7.60457 18.6046 8.5 17.5 8.5H13.5C12.3954 8.5 11.5 7.60457 11.5 6.5Z" stroke="#0E1C36" stroke-linecap="round" stroke-linejoin="round"/>
<path d="M0.5 17.5V13.5C0.5 12.3954 1.39543 11.5 2.5 11.5H6.5C7.60457 11.5 8.5 12.3954 8.5 13.5V17.5C8.5 18.6046 7.60457 19.5 6.5 19.5H2.5C1.39543 19.5 0.5 18.6046 0.5 17.5Z" stroke="#0E1C36" stroke-linecap="round" stroke-linejoin="round"/>
<path d="M11.5 17.5V13.5C11.5 12.3954 12.3954 11.5 13.5 11.5H17.5C18.6046 11.5 19.5 12.3954 19.5 13.5V17.5C19.5 18.6046 18.6046 19.5 17.5 19.5H13.5C12.3954 19.5 11.5 18.6046 11.5 17.5Z" stroke="#0E1C36" stroke-linecap="round" stroke-linejoin="round"/>
</svg>
