<svg width="24" height="24" viewBox="0 0 24 24" fill="none" xmlns="http://www.w3.org/2000/svg">
<path d="M1.49996 7L1.49999 5.99994C1.50002 4.89539 2.39544 4 3.49999 4H20.4999C21.6045 4 22.4999 4.89546 22.4999 6.00005L22.4999 7M1.49996 7H22.4999M1.49996 7L1.49973 18C1.49973 19.1046 2.39516 20 3.49973 20H20.4996C21.6042 20 22.4996 19.1046 22.4996 18L22.4999 7M8.00031 14.4999C8.82874 14.4999 9.50031 13.8284 9.50031 12.9999C9.50031 12.1715 8.82874 11.4999 8.00031 11.4999C7.17188 11.4999 6.50031 12.1715 6.50031 12.9999C6.50031 13.8284 7.17188 14.4999 8.00031 14.4999ZM8.00031 14.4999C6.77522 14.4999 5.72126 15.2833 5.25278 16.407M8.00031 14.4999C9.2254 14.4999 10.2794 15.2833 10.7478 16.407M5.25278 16.407C4.48153 15.6779 4.00032 14.6451 4.00032 13.5C4.00031 11.2908 5.79117 9.49995 8.00031 9.49995C10.2094 9.49995 12.0003 11.2908 12.0003 13.4999C12.0003 14.6451 11.5191 15.6779 10.7478 16.407M5.25278 16.407C5.96936 17.0845 6.93632 17.4999 8.00031 17.4999C9.0643 17.4999 10.0313 17.0845 10.7478 16.407M14.5001 11L20 10.9999M14.5001 13.5L18 13.4999M14.5001 16.0001L19 16" stroke="#0E1C36" stroke-linecap="round"/>
</svg>
