<svg width="24" height="24" viewBox="0 0 24 24" fill="none" xmlns="http://www.w3.org/2000/svg">
<path d="M13.5 2.5H4.5C3.39543 2.5 2.5 3.39543 2.5 4.5V19.5C2.5 20.6046 3.39543 21.5 4.5 21.5H19.5C20.6046 21.5 21.5 20.6046 21.5 19.5V10.5" stroke="#0E1C36" stroke-linecap="round" stroke-linejoin="round"/>
<path d="M5 18.5C5 18.2239 5.22386 18 5.5 18H18.5C18.7761 18 19 18.2239 19 18.5C19 18.7761 18.7761 19 18.5 19H5.5C5.22386 19 5 18.7761 5 18.5Z" fill="#0E1C36"/>
<path d="M5 15.5C5 15.2239 5.22386 15 5.5 15H7.5C7.77614 15 8 15.2239 8 15.5C8 15.7761 7.77614 16 7.5 16H5.5C5.22386 16 5 15.7761 5 15.5Z" fill="#0E1C36"/>
<path d="M14 15.5C14 15.2239 14.2239 15 14.5 15H18.5C18.7761 15 19 15.2239 19 15.5C19 15.7761 18.7761 16 18.5 16H14.5C14.2239 16 14 15.7761 14 15.5Z" fill="#0E1C36"/>
<path d="M17 12.5C17 12.2239 17.2239 12 17.5 12H18.5C18.7761 12 19 12.2239 19 12.5C19 12.7761 18.7761 13 18.5 13H17.5C17.2239 13 17 12.7761 17 12.5Z" fill="#0E1C36"/>
<path d="M5 12.5C5 12.2239 5.22386 12 5.5 12H6.5C6.77614 12 7 12.2239 7 12.5C7 12.7761 6.77614 13 6.5 13H5.5C5.22386 13 5 12.7761 5 12.5Z" fill="#0E1C36"/>
<path d="M5 9.5C5 9.22386 5.22386 9 5.5 9H8.5C8.77614 9 9 9.22386 9 9.5C9 9.77614 8.77614 10 8.5 10H5.5C5.22386 10 5 9.77614 5 9.5Z" fill="#0E1C36"/>
<path d="M5 6.5C5 6.22386 5.22386 6 5.5 6H10.5C10.7761 6 11 6.22386 11 6.5C11 6.77614 10.7761 7 10.5 7H5.5C5.22386 7 5 6.77614 5 6.5Z" fill="#0E1C36"/>
<path fill-rule="evenodd" clip-rule="evenodd" d="M16.7996 3.72068C17.7605 2.75977 19.3184 2.75977 20.2793 3.72068C21.2402 4.68158 21.2402 6.23952 20.2793 7.20042L13.3198 14.1599C13.2511 14.2286 13.1636 14.2754 13.0684 14.2945L9.58863 14.9904C9.42729 15.0227 9.26049 14.9722 9.14414 14.8559C9.0278 14.7395 8.9773 14.5727 9.00956 14.4114L9.70551 10.9316C9.72457 10.8364 9.77139 10.7489 9.84009 10.6802L16.7996 3.72068ZM19.5834 4.41663C19.0068 3.84008 18.0721 3.84008 17.4955 4.41663L17.1476 4.7646L19.2354 6.85245L19.5834 6.50447C20.1599 5.92793 20.1599 4.99317 19.5834 4.41663ZM18.5394 7.5484L16.4516 5.46055L10.884 11.0281L12.9719 13.116L18.5394 7.5484ZM11.9737 13.5097L10.4903 12.0263L10.1194 13.8806L11.9737 13.5097Z" fill="#0E1C36"/>
</svg>
