<svg width="24" height="24" viewBox="0 0 24 24" fill="none" xmlns="http://www.w3.org/2000/svg">
<path d="M5.50011 2.49967H4.50006C3.3955 2.49967 2.50008 3.39508 2.50006 4.49964L2.5 7.5M5.50011 2.49967V1.5M5.50011 2.49967H18.5001M5.50011 2.49967V4.5M18.5001 2.49967H19.5001C20.6047 2.49967 21.5001 3.39512 21.5001 4.49971L21.5 7.5M18.5001 2.49967V1.5M18.5001 2.49967V4.5M2.5 7.5V19.5C2.5 20.6046 3.39543 21.5 4.5 21.5H19.5C20.6046 21.5 21.5 20.6046 21.5 19.5V7.5M2.5 7.5H21.5" stroke="#0E1C36" stroke-linecap="round" stroke-linejoin="round"/>
<rect x="10" y="12" width="5" height="1" rx="0.5" fill="#0E1C36"/>
<rect x="10" y="10" width="9" height="1" rx="0.5" fill="#0E1C36"/>
<rect x="10" y="15" width="8" height="1" rx="0.5" fill="#0E1C36"/>
<rect x="10" y="17" width="4" height="1" rx="0.5" fill="#0E1C36"/>
<path d="M5.5 13.5V10.5H8.5V13.5H5.5Z" stroke="#0E1C36" stroke-linecap="round" stroke-linejoin="round"/>
<path d="M5.5 18.5001V15.5L8.5 15.5V18.5L5.5 18.5001Z" stroke="#0E1C36" stroke-linecap="round" stroke-linejoin="round"/>
</svg>
