<svg width="24" height="24" viewBox="0 0 24 24" fill="none" xmlns="http://www.w3.org/2000/svg">
<path d="M2.50004 19.5L2.5 4.5C2.5 3.39543 3.39543 2.5 4.5 2.5H19.5001C20.6046 2.5 21.5001 3.39543 21.5001 4.5L21.5001 19.5C21.5001 20.6046 20.6047 21.5 19.5001 21.5H4.50004C3.39547 21.5 2.50004 20.6046 2.50004 19.5Z" stroke="#0E1C36" stroke-linecap="round" stroke-linejoin="round"/>
<path d="M16.5 10C16.5 12.4853 14.4853 14.5 12 14.5C9.51472 14.5 7.5 12.4853 7.5 10C7.5 7.51472 9.51472 5.5 12 5.5C14.4853 5.5 16.5 7.51472 16.5 10Z" stroke="#0E1C36"/>
<path d="M4.51562 21.5C4.77292 17.591 8.0251 14.5 11.9992 14.5C15.9733 14.5 19.2255 17.591 19.4828 21.5" stroke="#0E1C36"/>
</svg>
